<svg xmlns="http://www.w3.org/2000/svg" fill="none" viewBox="0 0 20 20"><path fill="url(#a)" d="M2 6a2 2 0 0 1 2-2h10a4 4 0 0 1 4 4v6a2 2 0 0 1-2 2H6a4 4 0 0 1-4-4V6z"/><path fill="url(#b)" d="M3 6a1 1 0 0 1 1-1h10a3 3 0 0 1 3 3v6a1 1 0 0 1-1 1H6a3 3 0 0 1-3-3V6z"/><path fill="url(#c)" d="M3 6a1 1 0 0 1 1-1h10a3 3 0 0 1 3 3v6a1 1 0 0 1-1 1H6a3 3 0 0 1-3-3V6z"/><path fill="url(#d)" d="M13 13c0 .435-.835.804-2 .941V11.5a2.51 2.51 0 0 0-.05-.5H13v2z"/><path fill="url(#e)" fill-opacity=".7" d="M13 13c0 .435-.835.804-2 .941V11.5a2.51 2.51 0 0 0-.05-.5H13v2z"/><path fill="url(#f)" d="M13 11c0 .435-.835.804-2 .941V11.5A2.5 2.5 0 0 0 8.5 9H13v2z"/><path fill="url(#g)" fill-opacity=".3" d="M13 11c0 .435-.835.804-2 .941V11.5A2.5 2.5 0 0 0 8.5 9H13v2z"/><path fill="url(#h)" d="M13 9c0 .497-1.089.908-2.515.985A2.493 2.493 0 0 0 8.5 9H7V7h6v2z"/><path fill="url(#i)" fill-opacity=".4" d="M13 9c0 .497-1.089.908-2.515.985A2.493 2.493 0 0 0 8.5 9H7V7h6v2z"/><path fill="url(#j)" d="M10 6c1.657 0 3 .448 3 1s-1.343 1-3 1-3-.448-3-1 1.343-1 3-1z"/><rect width="9" height="9" x="1" y="10" fill="url(#k)" rx="2"/><rect width="9" height="9" x="1" y="10" fill="url(#l)" fill-opacity=".5" rx="2"/><path fill="#fff" d="m3.066 17 1.789-5h1.332l1.747 5H6.75l-.345-1h-1.83l-.337 1H3.066zm1.768-1.921h1.304l-.532-1.747a9.057 9.057 0 0 0-.052-.17 2.939 2.939 0 0 1-.049-.186h-.028a3.655 3.655 0 0 1-.1.352l-.543 1.75z"/><defs><linearGradient id="a" x1="7.167" x2="8.388" y1="4" y2="16.211" gradientUnits="userSpaceOnUse"><stop stop-color="#BBB"/><stop offset="1" stop-color="#888"/></linearGradient><linearGradient id="b" x1="6.889" x2="7.799" y1="5" y2="15.197" gradientUnits="userSpaceOnUse"><stop stop-color="#fff"/><stop offset="1" stop-color="#EBEBEB"/></linearGradient><radialGradient id="c" cx="0" cy="0" r="1" gradientTransform="matrix(7.38889 7.91667 -11.0833 2.96875 7.472 7.604)" gradientUnits="userSpaceOnUse"><stop offset=".177" stop-color="#fff"/><stop offset="1" stop-color="#EFEFEF"/></radialGradient><linearGradient id="d" x1="13" x2="-39.688" y1="12.702" y2="12.702" gradientUnits="userSpaceOnUse"><stop stop-color="#9C0D55"/><stop offset=".511" stop-color="#A61727"/><stop offset="1" stop-color="#8A1421"/></linearGradient><radialGradient id="e" cx="0" cy="0" r="1" gradientTransform="matrix(0 3.12071 -68.0158 0 -13.344 11)" gradientUnits="userSpaceOnUse"><stop offset=".21" stop-color="#560B14"/><stop offset=".605" stop-color="#560B14" stop-opacity="0"/></radialGradient><linearGradient id="f" x1="13" x2="-10.417" y1="10.702" y2="10.702" gradientUnits="userSpaceOnUse"><stop stop-color="#F24A9D"/><stop offset=".511" stop-color="#E82C41"/><stop offset="1" stop-color="#CA2134"/></linearGradient><radialGradient id="g" cx="0" cy="0" r="1" gradientTransform="matrix(0 3.12071 -30.2292 0 1.292 9)" gradientUnits="userSpaceOnUse"><stop offset=".21" stop-color="#560B14"/><stop offset=".751" stop-color="#560B14" stop-opacity="0"/></radialGradient><linearGradient id="h" x1="13" x2="5" y1="8.677" y2="8.677" gradientUnits="userSpaceOnUse"><stop stop-color="#F97DBD"/><stop offset=".511" stop-color="#FB5B6C"/><stop offset="1" stop-color="#F83F54"/></linearGradient><radialGradient id="i" cx="0" cy="0" r="1" gradientTransform="matrix(0 3.07477 -10.3273 0 9 7)" gradientUnits="userSpaceOnUse"><stop offset=".21" stop-color="#FF9FB2"/><stop offset=".634" stop-color="#FF9FB2" stop-opacity="0"/></radialGradient><linearGradient id="j" x1="9.46" x2="8.691" y1="5.484" y2="8.346" gradientUnits="userSpaceOnUse"><stop stop-color="#F97DBD"/><stop offset=".902" stop-color="#FF9FB2"/></linearGradient><radialGradient id="k" cx="0" cy="0" r="1" gradientTransform="rotate(45 -11.572 6.206) scale(12.7279)" gradientUnits="userSpaceOnUse"><stop stop-color="#E82C58"/><stop offset=".939" stop-color="#AA1D2D"/></radialGradient><radialGradient id="l" cx="0" cy="0" r="1" gradientTransform="matrix(0 6.3 -7.17188 0 5.499 15.4)" gradientUnits="userSpaceOnUse"><stop offset=".576" stop-color="#FF5778" stop-opacity="0"/><stop offset=".974" stop-color="#FF9FB2"/></radialGradient></defs></svg>