<svg xmlns="http://www.w3.org/2000/svg" fill="none" viewBox="0 0 20 20"><path fill="url(#a)" d="M8.456 3.698A2 2 0 0 0 6.937 3H4a2 2 0 0 0-2 2v9a2 2 0 0 0 2 2h12a2 2 0 0 0 2-2V7a2 2 0 0 0-2-2H9.966a.857.857 0 0 1-.651-.3l-.86-1.002z"/><path fill="url(#b)" fill-opacity=".2" d="M8.456 3.698A2 2 0 0 0 6.937 3H4a2 2 0 0 0-2 2v9a2 2 0 0 0 2 2h12a2 2 0 0 0 2-2V7a2 2 0 0 0-2-2H9.966a.857.857 0 0 1-.651-.3l-.86-1.002z"/><path fill="url(#c)" d="M3 8.5A1.5 1.5 0 0 1 4.5 7h2.293C7.246 7 7.68 6.82 8 6.5c.32-.32.754-.5 1.207-.5H16a1 1 0 0 1 1 1v7a1 1 0 0 1-1 1H4a1 1 0 0 1-1-1V8.5z"/><path fill="#944600" d="M7.974 9c.558 0 1.011.445 1.025 1H6.5a.5.5 0 0 0-.5.5v1a.5.5 0 0 0 .5.5h2.499c-.014.555-.467 1-1.025 1H6.5A1.5 1.5 0 0 1 5 11.5v-1A1.5 1.5 0 0 1 6.5 9h1.474zM4 12H3v-2h1v2zm13.001 0H9.686A.685.685 0 0 1 9 11.315v-.63c0-.378.307-.685.685-.685H17v2z"/><defs><linearGradient id="a" x1="6" x2="6" y1="16" y2="3" gradientUnits="userSpaceOnUse"><stop stop-color="#BA7300"/><stop offset=".221" stop-color="#C77B00"/><stop offset=".716" stop-color="#D48300"/><stop offset="1" stop-color="#D48300"/></linearGradient><radialGradient id="b" cx="0" cy="0" r="1" gradientTransform="matrix(0 1.72617 -5.71429 0 7.714 6.84)" gradientUnits="userSpaceOnUse"><stop/><stop offset="1" stop-opacity="0"/></radialGradient><linearGradient id="c" x1="9.058" x2="7.038" y1="15.662" y2="5.986" gradientUnits="userSpaceOnUse"><stop stop-color="#F7AB40"/><stop offset="1" stop-color="#FFDD57"/></linearGradient></defs></svg>