<svg xmlns="http://www.w3.org/2000/svg" fill="none" viewBox="0 0 20 20"><path fill="url(#a)" fill-rule="evenodd" d="M4 4a2 2 0 0 1 2-2h6a4 4 0 0 1 4 4v10a2 2 0 0 1-2 2H5a2 2 0 0 1-1-3.732V4z" clip-rule="evenodd"/><path fill="url(#b)" fill-rule="evenodd" d="M5 17h6.768a1.992 1.992 0 0 1-.268-1c0-.364.097-.706.268-1H5a1 1 0 1 0 0 2zm9 0h-.5a1 1 0 1 1 0-2 .5.5 0 1 0 0-1H5V4a1 1 0 0 1 1-1h6a3 3 0 0 1 3 3v10a1 1 0 0 1-1 1z" clip-rule="evenodd"/><path fill="url(#c)" fill-rule="evenodd" d="M5 17h6.768a1.992 1.992 0 0 1-.268-1c0-.364.097-.706.268-1H5a1 1 0 1 0 0 2zm9 0h-.5a1 1 0 1 1 0-2 .5.5 0 1 0 0-1H5V4a1 1 0 0 1 1-1h6a3 3 0 0 1 3 3v10a1 1 0 0 1-1 1z" clip-rule="evenodd"/><path fill="url(#d)" d="M11.186 5.036a.5.5 0 0 1 .278.65l-2 5a.5.5 0 0 1-.928-.372l2-5a.5.5 0 0 1 .65-.278z"/><path fill="url(#e)" d="M7.854 6.647a.5.5 0 0 1 0 .707L7.207 8l.647.647a.5.5 0 1 1-.708.707l-1-1a.5.5 0 0 1 0-.707l1-1a.5.5 0 0 1 .708 0z"/><path fill="url(#f)" d="M12.146 6.647a.5.5 0 0 1 .708 0l1 1a.5.5 0 0 1 0 .707l-1 1a.5.5 0 0 1-.708-.707L12.793 8l-.647-.646a.5.5 0 0 1 0-.707z"/><defs><linearGradient id="a" x1="7.198" x2="9.826" y1="2" y2="18.013" gradientUnits="userSpaceOnUse"><stop stop-color="#BBB"/><stop offset="1" stop-color="#888"/></linearGradient><linearGradient id="b" x1="7.056" x2="9.288" y1="3" y2="17.034" gradientUnits="userSpaceOnUse"><stop stop-color="#fff"/><stop offset="1" stop-color="#EBEBEB"/></linearGradient><radialGradient id="c" cx="0" cy="0" r="1" gradientTransform="matrix(5.80556 11.0833 -8.70833 4.15625 7.514 6.646)" gradientUnits="userSpaceOnUse"><stop offset=".177" stop-color="#fff"/><stop offset="1" stop-color="#EFEFEF"/></radialGradient><linearGradient id="d" x1="7.75" x2="10.471" y1="4" y2="11" gradientUnits="userSpaceOnUse"><stop offset="0" stop-color="#597493"/><stop offset="1" stop-color="#0F2F56"/></linearGradient><linearGradient id="e" x1="7.75" x2="10.471" y1="4" y2="11" gradientUnits="userSpaceOnUse"><stop offset="0" stop-color="#597493"/><stop offset="1" stop-color="#0F2F56"/></linearGradient><linearGradient id="f" x1="7.75" x2="10.471" y1="4" y2="11" gradientUnits="userSpaceOnUse"><stop offset="0" stop-color="#597493"/><stop offset="1" stop-color="#0F2F56"/></linearGradient></defs></svg>