<svg xmlns="http://www.w3.org/2000/svg" fill="none" viewBox="0 0 20 20"><path fill="url(#a)" d="M4 4a2 2 0 0 1 2-2h6a4 4 0 0 1 4 4v10a2 2 0 0 1-2 2H8a4 4 0 0 1-4-4V4z"/><path fill="url(#b)" d="M5 4a1 1 0 0 1 1-1h6a3 3 0 0 1 3 3v10a1 1 0 0 1-1 1H8a3 3 0 0 1-3-3V4z"/><path fill="url(#c)" d="M5 4a1 1 0 0 1 1-1h6a3 3 0 0 1 3 3v10a1 1 0 0 1-1 1H8a3 3 0 0 1-3-3V4z"/><path fill="url(#d)" d="M13 10.754v2.512a.735.735 0 0 1-.734.734H11v-2.5a2.5 2.5 0 0 0-1.791-2.396l.577-.771L13 10.753z"/><path fill="url(#e)" d="M13 10.599a.734.734 0 0 1-.734.734h-1.274A2.498 2.498 0 0 0 8.5 9H7.067a.945.945 0 0 1 .871-.594l4.43-.026L13 8v2.599z"/><path fill="url(#f)" fill-opacity=".6" d="M13 10.599a.734.734 0 0 1-.734.734h-1.274A2.498 2.498 0 0 0 8.5 9H7.067a.945.945 0 0 1 .871-.594l4.43-.026L13 8v2.599z"/><path fill="url(#g)" fill-opacity=".1" d="M13 10.599a.734.734 0 0 1-.734.734h-1.274A2.498 2.498 0 0 0 8.5 9H7.067a.945.945 0 0 1 .871-.594l4.43-.026L13 8v2.599z"/><path fill="url(#h)" d="M12.266 6c.405 0 .734.329.734.734v1.198a.735.735 0 0 1-.734.735H8.18c-.32 0-.61.127-.822.333H7V7.259A1.26 1.26 0 0 1 8.259 6h4.007z"/><path fill="url(#i)" fill-opacity=".8" d="M12.266 6c.405 0 .734.329.734.734v1.198a.735.735 0 0 1-.734.735H8.18c-.32 0-.61.127-.822.333H7V7.259A1.26 1.26 0 0 1 8.259 6h4.007z"/><rect width="9" height="9" x="1" y="10" fill="url(#j)" rx="2"/><rect width="9" height="9" x="1" y="10" fill="url(#k)" fill-opacity=".65" rx="2"/><path fill="#fff" d="m8.5 12-1.077 5H6.136L5.5 14l-.666 3h-1.3L2.5 12h1.061l.639 3.3.634-3.3h1.302l.664 3.3.623-3.3H8.5z"/><defs><linearGradient id="a" x1="7.875" x2="10.709" y1="2" y2="17.941" gradientUnits="userSpaceOnUse"><stop stop-color="#BBB"/><stop offset="1" stop-color="#888"/></linearGradient><linearGradient id="b" x1="7.778" x2="10.221" y1="3" y2="16.961" gradientUnits="userSpaceOnUse"><stop stop-color="#fff"/><stop offset="1" stop-color="#EBEBEB"/></linearGradient><radialGradient id="c" cx="0" cy="0" r="1" gradientTransform="matrix(5.27778 11.0833 -7.91667 4.15625 8.194 6.646)" gradientUnits="userSpaceOnUse"><stop offset=".177" stop-color="#fff"/><stop offset="1" stop-color="#EFEFEF"/></radialGradient><radialGradient id="d" cx="0" cy="0" r="1" gradientTransform="matrix(24.0151 0 0 7.85818 12.49 18.473)" gradientUnits="userSpaceOnUse"><stop offset=".18" stop-color="#1657F4"/><stop offset=".575" stop-color="#0036C4"/></radialGradient><linearGradient id="e" x1="6.919" x2="11.556" y1="13.16" y2="13.16" gradientUnits="userSpaceOnUse"><stop stop-color="#66C0FF"/><stop offset=".256" stop-color="#0094F0"/></linearGradient><radialGradient id="f" cx="0" cy="0" r="1" gradientTransform="matrix(-4.0831 8.63058 -8.97491 -23.5949 12.974 8.99)" gradientUnits="userSpaceOnUse"><stop offset=".14" stop-color="#D471FF"/><stop offset=".831" stop-color="#509DF5" stop-opacity="0"/></radialGradient><radialGradient id="g" cx="0" cy="0" r="1" gradientTransform="matrix(0 7.54839 -20.5153 0 12.088 14.876)" gradientUnits="userSpaceOnUse"><stop offset=".283" stop-color="#4F006F" stop-opacity="0"/><stop offset="1" stop-color="#4F006F"/></radialGradient><linearGradient id="h" x1="7.054" x2="12.973" y1="9.838" y2="9.894" gradientUnits="userSpaceOnUse"><stop stop-color="#9DEAFF"/><stop offset=".201" stop-color="#3BD5FF"/></linearGradient><radialGradient id="i" cx="0" cy="0" r="1" gradientTransform="matrix(-5.66748 2.31567 -3.55138 -23.5937 12.973 6.933)" gradientUnits="userSpaceOnUse"><stop offset=".061" stop-color="#E4A7FE"/><stop offset=".539" stop-color="#E4A7FE" stop-opacity="0"/></radialGradient><radialGradient id="j" cx="0" cy="0" r="1" gradientTransform="rotate(45 -11.571 6.207) scale(12.7279)" gradientUnits="userSpaceOnUse"><stop offset=".081" stop-color="#367AF2"/><stop offset=".872" stop-color="#001A8F"/></radialGradient><radialGradient id="k" cx="0" cy="0" r="1" gradientTransform="matrix(0 6.3 -7.1803 0 5.5 15.4)" gradientUnits="userSpaceOnUse"><stop offset=".587" stop-color="#2763E5" stop-opacity="0"/><stop offset=".974" stop-color="#58AAFE"/></radialGradient></defs></svg>