<svg xmlns="http://www.w3.org/2000/svg" fill="none" viewBox="0 0 20 20"><defs><linearGradient id="odf_a" x1="3" y1="4.5" x2="6.5" y2="16" gradientUnits="userSpaceOnUse"><stop stop-color="#2B9BE5"/><stop offset="1" stop-color="#0F6CBD"/></linearGradient><linearGradient id="odf_b" x1="10" y1="8.4" x2="10" y2="16.4" gradientUnits="userSpaceOnUse"><stop stop-color="#3AAFF0"/><stop offset="1" stop-color="#1B87DC"/></linearGradient></defs><path fill="url(#odf_a)" d="M2.5 5.75C2.5 4.784 3.284 4 4.25 4h3.19c.464 0 .909.184 1.237.513l1.06 1.06c.329.33.774.514 1.238.514H15.75c.966 0 1.75.783 1.75 1.75V14c0 .966-.784 1.75-1.75 1.75H4.25A1.75 1.75 0 0 1 2.5 14V5.75Z"/><path fill="url(#odf_b)" d="M2.5 8.6h15V14c0 .966-.784 1.75-1.75 1.75H4.25A1.75 1.75 0 0 1 2.5 14V8.6Z"/><path fill="#fff" fill-opacity=".25" d="M2.5 8.6h15v.85h-15z"/></svg>
