<svg xmlns="http://www.w3.org/2000/svg" fill="none" viewBox="0 0 20 20"><path fill="url(#a)" d="M2 6a2 2 0 0 1 2-2h10a4 4 0 0 1 4 4v6a2 2 0 0 1-2 2H6a4 4 0 0 1-4-4V6z"/><path fill="url(#b)" d="M3 6a1 1 0 0 1 1-1h10a3 3 0 0 1 3 3v6a1 1 0 0 1-1 1H6a3 3 0 0 1-3-3V6z"/><path fill="url(#c)" d="M3 6a1 1 0 0 1 1-1h10a3 3 0 0 1 3 3v6a1 1 0 0 1-1 1H6a3 3 0 0 1-3-3V6z"/><path fill="url(#d)" fill-rule="evenodd" d="M6 10a4 4 0 1 1 8 0 4 4 0 0 1-8 0zm1.041-.5a3.003 3.003 0 0 1 1.55-2.15 6.184 6.184 0 0 0-.57 2.15h-.98zm0 1c.157.933.744 1.72 1.55 2.15a6.184 6.184 0 0 1-.57-2.15h-.98zm1.983 0c.066.683.26 1.293.487 1.754.141.286.288.498.41.631.03.033.057.058.08.077.021-.02.048-.044.078-.077.122-.133.269-.345.41-.631.227-.46.42-1.07.486-1.754h-1.95zm2.955 0a6.187 6.187 0 0 1-.57 2.15 3.003 3.003 0 0 0 1.55-2.15h-.98zm.98-1h-.98a6.188 6.188 0 0 0-.57-2.15 3.003 3.003 0 0 1 1.55 2.15zm-1.983 0H9.024c.066-.683.26-1.293.487-1.754.141-.286.288-.498.41-.631a.779.779 0 0 1 .08-.077c.022.02.048.044.078.077.123.132.27.345.41.631.227.46.42 1.07.486 1.754z" clip-rule="evenodd"/><defs><linearGradient id="a" x1="7.167" x2="8.388" y1="4" y2="16.211" gradientUnits="userSpaceOnUse"><stop stop-color="#BBB"/><stop offset="1" stop-color="#888"/></linearGradient><linearGradient id="b" x1="6.889" x2="7.799" y1="5" y2="15.197" gradientUnits="userSpaceOnUse"><stop stop-color="#fff"/><stop offset="1" stop-color="#EBEBEB"/></linearGradient><radialGradient id="c" cx="0" cy="0" r="1" gradientTransform="matrix(7.38889 7.91667 -11.0833 2.96875 7.472 7.604)" gradientUnits="userSpaceOnUse"><stop offset=".177" stop-color="#fff"/><stop offset="1" stop-color="#EFEFEF"/></radialGradient><linearGradient id="d" x1="8.455" x2="10.757" y1="7" y2="13.904" gradientUnits="userSpaceOnUse"><stop offset="0" stop-color="#597493"/><stop offset="1" stop-color="#0F2F56"/></linearGradient></defs></svg>