<svg xmlns="http://www.w3.org/2000/svg" fill="none" viewBox="0 0 20 20"><path fill="url(#a)" d="M3 5a2 2 0 0 1 2-2h8a4 4 0 0 1 4 4v8a2 2 0 0 1-2 2H7a4 4 0 0 1-4-4V5z"/><path fill="url(#b)" d="M4 5a1 1 0 0 1 1-1h8a3 3 0 0 1 3 3v8a1 1 0 0 1-1 1H7a3 3 0 0 1-3-3V5z"/><path fill="url(#c)" d="M4 5a1 1 0 0 1 1-1h8a3 3 0 0 1 3 3v8a1 1 0 0 1-1 1H7a3 3 0 0 1-3-3V5z"/><path fill="url(#d)" fill-rule="evenodd" d="M10.466 6.09a1.25 1.25 0 0 0-.932 0l-2.75 1.104A1.25 1.25 0 0 0 6 8.354v3.293c0 .51.31.97.783 1.16l2.75 1.108c.3.12.635.12.934 0l2.75-1.108c.473-.19.783-.65.783-1.16V8.354c0-.51-.31-.97-.784-1.16l-2.75-1.104zm.034 3.661a2 2 0 0 0 .338-.12L13 8.633v3.014a.25.25 0 0 1-.157.232l-2.75 1.109a.25.25 0 0 1-.186 0l-2.75-1.109A.25.25 0 0 1 7 11.647V8.633l2.162.998a2 2 0 0 0 .338.12v1.69a.5.5 0 1 0 1 0v-1.69z" clip-rule="evenodd"/><defs><linearGradient id="a" x1="7.521" x2="9.406" y1="3" y2="17.138" gradientUnits="userSpaceOnUse"><stop stop-color="#BBB"/><stop offset="1" stop-color="#888"/></linearGradient><linearGradient id="b" x1="7.333" x2="8.851" y1="4" y2="16.144" gradientUnits="userSpaceOnUse"><stop stop-color="#fff"/><stop offset="1" stop-color="#EBEBEB"/></linearGradient><radialGradient id="c" cx="0" cy="0" r="1" gradientTransform="matrix(6.33333 9.5 -9.5 3.5625 7.833 7.125)" gradientUnits="userSpaceOnUse"><stop offset=".177" stop-color="#fff"/><stop offset="1" stop-color="#EFEFEF"/></radialGradient><linearGradient id="d" x1="7.143" x2="11.842" y1="3.994" y2="13.806" gradientUnits="userSpaceOnUse"><stop offset="0" stop-color="#597493"/><stop offset="1" stop-color="#0F2F56"/></linearGradient></defs></svg>