<svg xmlns="http://www.w3.org/2000/svg" fill="none" viewBox="0 0 20 20"><path fill="url(#a)" d="M2 6a2 2 0 0 1 2-2h10a4 4 0 0 1 4 4v6a2 2 0 0 1-2 2H6a4 4 0 0 1-4-4V6z"/><path fill="url(#b)" d="M3 6a1 1 0 0 1 1-1h10a3 3 0 0 1 3 3v6a1 1 0 0 1-1 1H6a3 3 0 0 1-3-3V6z"/><path fill="url(#c)" d="M3 6a1 1 0 0 1 1-1h10a3 3 0 0 1 3 3v6a1 1 0 0 1-1 1H6a3 3 0 0 1-3-3V6z"/><path fill="#33C481" d="M10 6a1 1 0 0 1 1 1v2l-1.09.436A2.488 2.488 0 0 0 8.5 9H6V7a1 1 0 0 1 1-1h3z"/><path fill="#21A366" d="M12 9a1 1 0 0 1 1 1v1l-2 .8v-.3A2.5 2.5 0 0 0 8.5 9H12z"/><path fill="#185C37" d="M13 11a1 1 0 0 1 1 1v1a1 1 0 0 1-1 1h-2v-2.5a2.51 2.51 0 0 0-.05-.5H13z"/><rect width="9" height="9" x="1" y="10" fill="#107C41" rx="2"/><path fill="#fff" d="M4.798 15.372V17H3.67v-5h1.742c.624 0 1.099.136 1.424.408.329.272.493.675.493 1.21 0 .55-.184.98-.552 1.29-.365.31-.856.464-1.473.464h-.506zm0-2.507v1.642h.47c.28 0 .495-.073.647-.22.151-.146.227-.357.227-.63 0-.254-.075-.45-.224-.587-.146-.137-.357-.205-.632-.205h-.488z"/><defs><linearGradient id="a" x1="7.167" x2="8.388" y1="4" y2="16.211" gradientUnits="userSpaceOnUse"><stop stop-color="#BBB"/><stop offset="1" stop-color="#888"/></linearGradient><linearGradient id="b" x1="6.889" x2="7.799" y1="5" y2="15.197" gradientUnits="userSpaceOnUse"><stop stop-color="#fff"/><stop offset="1" stop-color="#EBEBEB"/></linearGradient><radialGradient id="c" cx="0" cy="0" r="1" gradientTransform="matrix(7.38889 7.91667 -11.0833 2.96875 7.472 7.604)" gradientUnits="userSpaceOnUse"><stop offset=".177" stop-color="#fff"/><stop offset="1" stop-color="#EFEFEF"/></radialGradient></defs></svg>