<svg xmlns="http://www.w3.org/2000/svg" fill="none" viewBox="0 0 20 20"><path fill="url(#a)" d="M2 6a2 2 0 0 1 2-2h10a4 4 0 0 1 4 4v6a2 2 0 0 1-2 2H6a4 4 0 0 1-4-4V6z"/><path fill="url(#b)" d="M3 6a1 1 0 0 1 1-1h10a3 3 0 0 1 3 3v6a1 1 0 0 1-1 1H6a3 3 0 0 1-3-3V6z"/><path fill="url(#c)" d="M3 6a1 1 0 0 1 1-1h10a3 3 0 0 1 3 3v6a1 1 0 0 1-1 1H6a3 3 0 0 1-3-3V6z"/><path fill="url(#d)" d="M10 6a4 4 0 0 1 1 7.875V11.5A2.5 2.5 0 0 0 8.5 9H6.126C6.57 7.275 8.136 6 10 6z"/><path fill="url(#e)" d="M10 6a4 4 0 0 1 1 7.875V11.5A2.5 2.5 0 0 0 8.5 9H6.126C6.57 7.275 8.136 6 10 6z"/><path fill="url(#f)" fill-opacity=".5" d="M10 6a4 4 0 0 1 1 7.875V11.5A2.5 2.5 0 0 0 8.5 9H6.126C6.57 7.275 8.136 6 10 6z"/><path fill="url(#g)" d="M10 6a4 4 0 0 1 3.457 6.009l.063-.139a1.328 1.328 0 0 0-1.21-1.873h-1.597a.712.712 0 0 1-.257-.05 2.513 2.513 0 0 0-.41-.409.711.711 0 0 1-.05-.258l.002-1.59c0-.964-.996-1.608-1.875-1.21l-.12.054A3.981 3.981 0 0 1 10 6z"/><path fill="url(#h)" d="M10 6a4 4 0 0 1 3.457 6.009l.063-.139a1.328 1.328 0 0 0-1.21-1.873h-1.597a.712.712 0 0 1-.257-.05 2.513 2.513 0 0 0-.41-.409.711.711 0 0 1-.05-.258l.002-1.59c0-.964-.996-1.608-1.875-1.21l-.12.054A3.981 3.981 0 0 1 10 6z"/><rect width="9" height="9" x="1" y="10" fill="url(#i)" rx="2"/><rect width="9" height="9" x="1" y="10" fill="url(#j)" fill-opacity=".3" rx="2"/><path fill="#fff" d="M4.799 15.372V17H3.67v-5h1.742c.624 0 1.099.136 1.424.408.329.272.493.675.493 1.21 0 .55-.184.98-.552 1.29-.365.31-.856.464-1.473.464h-.506zm0-2.507v1.642h.47c.28 0 .495-.073.647-.22.151-.146.227-.357.227-.63 0-.254-.075-.45-.224-.587-.146-.137-.357-.205-.632-.205H4.8z"/><defs><linearGradient id="a" x1="7.167" x2="8.388" y1="4" y2="16.211" gradientUnits="userSpaceOnUse"><stop stop-color="#BBB"/><stop offset="1" stop-color="#888"/></linearGradient><linearGradient id="b" x1="6.889" x2="7.799" y1="5" y2="15.197" gradientUnits="userSpaceOnUse"><stop stop-color="#fff"/><stop offset="1" stop-color="#EBEBEB"/></linearGradient><radialGradient id="c" cx="0" cy="0" r="1" gradientTransform="matrix(7.38889 7.91667 -11.0833 2.96875 7.472 7.604)" gradientUnits="userSpaceOnUse"><stop offset=".177" stop-color="#fff"/><stop offset="1" stop-color="#EFEFEF"/></radialGradient><linearGradient id="d" x1="8.695" x2="3.75" y1="5.741" y2="11.348" gradientUnits="userSpaceOnUse"><stop offset=".058" stop-color="#FF7F48"/><stop offset="1" stop-color="#E5495B"/></linearGradient><radialGradient id="e" cx="0" cy="0" r="1" gradientTransform="matrix(-6.83785 5.77014 -11.509 -9.71191 11.088 8.359)" gradientUnits="userSpaceOnUse"><stop offset=".152" stop-color="#AA1D2D"/><stop offset=".381" stop-color="#D12B18" stop-opacity=".44"/><stop offset=".602" stop-color="#FF3C00" stop-opacity="0"/></radialGradient><radialGradient id="f" cx="0" cy="0" r="1" gradientTransform="matrix(8.28873 -3.30376 7.09277 12.6715 2.687 13.368)" gradientUnits="userSpaceOnUse"><stop offset=".407" stop-color="#FF66FB"/><stop offset="1" stop-color="#EA3D01" stop-opacity="0"/></radialGradient><radialGradient id="g" cx="0" cy="0" r="1" gradientTransform="matrix(3.65362 -4.18262 3.89947 3.24575 9.557 10.546)" gradientUnits="userSpaceOnUse"><stop stop-color="#FD6EF9"/><stop offset=".637" stop-color="#F94"/><stop offset=".852" stop-color="#FCC479"/></radialGradient><radialGradient id="h" cx="0" cy="0" r="1" gradientTransform="matrix(-.4127 2.79632 -6.3265 -.8897 9.194 6.528)" gradientUnits="userSpaceOnUse"><stop offset=".144" stop-color="#FF8D13"/><stop offset=".537" stop-color="#FF7F29" stop-opacity="0"/></radialGradient><radialGradient id="i" cx="0" cy="0" r="1" gradientTransform="rotate(45 -11.572 6.206) scale(12.7279)" gradientUnits="userSpaceOnUse"><stop stop-color="#F8193E"/><stop offset=".939" stop-color="#920616"/></radialGradient><radialGradient id="j" cx="0" cy="0" r="1" gradientTransform="matrix(0 6.3 -7.17188 0 5.499 15.4)" gradientUnits="userSpaceOnUse"><stop offset=".576" stop-color="#FFB055" stop-opacity="0"/><stop offset=".974" stop-color="#FFF2BE"/></radialGradient></defs></svg>