<svg xmlns="http://www.w3.org/2000/svg" fill="none" viewBox="0 0 20 20"><path fill="url(#a)" d="M4 4a2 2 0 0 1 2-2h6a4 4 0 0 1 4 4v10a2 2 0 0 1-2 2H8a4 4 0 0 1-4-4V4z"/><path fill="url(#b)" d="M5 4a1 1 0 0 1 1-1h6a3 3 0 0 1 3 3v10a1 1 0 0 1-1 1H8a3 3 0 0 1-3-3V4z"/><path fill="url(#c)" d="M5 4a1 1 0 0 1 1-1h6a3 3 0 0 1 3 3v10a1 1 0 0 1-1 1H8a3 3 0 0 1-3-3V4z"/><path fill="#038387" d="M12.46 7a.54.54 0 0 1 .54.54v4.92a.54.54 0 0 1-.54.54H11v-1.5c0-.817-.394-1.54-1-1.997V7.54a.54.54 0 0 1 .54-.54h1.92z"/><path fill="#000" d="M12.5 7v6H12V7h.5z" opacity=".2"/><path fill="#1A9BA1" d="M12 10v2h-1v-.5a2.49 2.49 0 0 0-.504-1.5H12z"/><path fill="#038387" d="M12 13.5c0 .275-.225.5-.5.5H11v-2h1v1.5z"/><path fill="#37C6D0" d="M11.5 6c.275 0 .5.225.5.5V10h-1.504A2.493 2.493 0 0 0 8.5 9H7V6.5c0-.275.225-.5.5-.5h4z"/><rect width="9" height="9" x="1" y="10" fill="#038387" rx="2"/><path fill="#fff" d="M4.799 15.372V17H3.67v-5h1.742c.624 0 1.099.136 1.424.408.329.272.493.675.493 1.21 0 .55-.184.98-.552 1.29-.365.31-.856.464-1.473.464h-.506zm0-2.507v1.642h.47c.28 0 .495-.073.647-.22.151-.146.227-.357.227-.63 0-.254-.075-.45-.224-.587-.146-.137-.357-.205-.632-.205H4.8z"/><defs><linearGradient id="a" x1="7.875" x2="10.709" y1="2" y2="17.941" gradientUnits="userSpaceOnUse"><stop stop-color="#BBB"/><stop offset="1" stop-color="#888"/></linearGradient><linearGradient id="b" x1="7.778" x2="10.221" y1="3" y2="16.961" gradientUnits="userSpaceOnUse"><stop stop-color="#fff"/><stop offset="1" stop-color="#EBEBEB"/></linearGradient><radialGradient id="c" cx="0" cy="0" r="1" gradientTransform="matrix(5.27778 11.0833 -7.91667 4.15625 8.194 6.646)" gradientUnits="userSpaceOnUse"><stop offset=".177" stop-color="#fff"/><stop offset="1" stop-color="#EFEFEF"/></radialGradient></defs></svg>