<svg xmlns="http://www.w3.org/2000/svg" fill="none" viewBox="0 0 20 20"><path fill="url(#a)" d="M2 6a2 2 0 0 1 2-2h10a4 4 0 0 1 4 4v6a2 2 0 0 1-2 2H6a4 4 0 0 1-4-4V6z"/><path fill="url(#b)" d="M3 6a1 1 0 0 1 1-1h10a3 3 0 0 1 3 3v6a1 1 0 0 1-1 1H6a3 3 0 0 1-3-3V6z"/><path fill="url(#c)" d="M3 6a1 1 0 0 1 1-1h10a3 3 0 0 1 3 3v6a1 1 0 0 1-1 1H6a3 3 0 0 1-3-3V6z"/><path fill="url(#d)" fill-rule="evenodd" d="M6 8.5A1.5 1.5 0 0 1 7.5 7h5.023a1.5 1.5 0 0 1 1.5 1.5v3.013a1.5 1.5 0 0 1-1.5 1.5H7.5a1.5 1.5 0 0 1-1.5-1.5V8.5zm4.513 3.513h2.01a.5.5 0 0 0 .5-.5v-1.007h-2.51v1.507zm-1-1.507v1.507H7.5a.5.5 0 0 1-.5-.5v-1.007h2.513zm1-1h2.51V8.5a.5.5 0 0 0-.5-.5h-2.01v1.506zM9.513 8v1.506H7V8.5a.5.5 0 0 1 .5-.5h2.013z" clip-rule="evenodd"/><defs><linearGradient id="a" x1="7.167" x2="8.388" y1="4" y2="16.211" gradientUnits="userSpaceOnUse"><stop stop-color="#BBB"/><stop offset="1" stop-color="#888"/></linearGradient><linearGradient id="b" x1="6.889" x2="7.799" y1="5" y2="15.197" gradientUnits="userSpaceOnUse"><stop stop-color="#fff"/><stop offset="1" stop-color="#EBEBEB"/></linearGradient><radialGradient id="c" cx="0" cy="0" r="1" gradientTransform="matrix(7.38889 7.91667 -11.0833 2.96875 7.472 7.604)" gradientUnits="userSpaceOnUse"><stop offset=".177" stop-color="#fff"/><stop offset="1" stop-color="#EFEFEF"/></radialGradient><linearGradient id="d" x1="7.755" x2="10.48" y1="6.248" y2="13.014" gradientUnits="userSpaceOnUse"><stop offset="0" stop-color="#597493"/><stop offset="1" stop-color="#0F2F56"/></linearGradient></defs></svg>