<svg xmlns="http://www.w3.org/2000/svg" fill="none" viewBox="0 0 20 20"><path fill="url(#a)" d="M4 4a2 2 0 0 1 2-2h6a4 4 0 0 1 4 4v10a2 2 0 0 1-2 2H8a4 4 0 0 1-4-4V4z"/><path fill="url(#b)" d="M5 4a1 1 0 0 1 1-1h6a3 3 0 0 1 3 3v10a1 1 0 0 1-1 1H8a3 3 0 0 1-3-3V4z"/><path fill="url(#c)" d="M5 4a1 1 0 0 1 1-1h6a3 3 0 0 1 3 3v10a1 1 0 0 1-1 1H8a3 3 0 0 1-3-3V4z"/><path fill="url(#d)" fill-rule="evenodd" d="M9.145 13.908a.463.463 0 0 1-.355-.432l-.03-.492a.5.5 0 0 0-.722-.416l-.441.22a.463.463 0 0 1-.552-.092 4.013 4.013 0 0 1-.856-1.484.463.463 0 0 1 .196-.523l.41-.272a.5.5 0 0 0 0-.834l-.41-.272a.463.463 0 0 1-.197-.523 4.016 4.016 0 0 1 .857-1.484.463.463 0 0 1 .552-.091l.44.22a.5.5 0 0 0 .722-.417l.031-.492a.463.463 0 0 1 .355-.432 4.015 4.015 0 0 1 1.713 0 .463.463 0 0 1 .355.432l.03.492a.5.5 0 0 0 .722.416l.441-.22a.463.463 0 0 1 .551.092 4.012 4.012 0 0 1 .857 1.484.463.463 0 0 1-.197.523l-.41.272a.5.5 0 0 0 0 .834l.41.272c.173.115.26.325.197.523a4.015 4.015 0 0 1-.857 1.484.463.463 0 0 1-.55.091l-.442-.22a.5.5 0 0 0-.722.417l-.03.492a.463.463 0 0 1-.355.432 4.012 4.012 0 0 1-1.713 0zM10 11a1 1 0 1 0 0-2 1 1 0 0 0 0 2z" clip-rule="evenodd"/><defs><linearGradient id="a" x1="7.875" x2="10.709" y1="2" y2="17.941" gradientUnits="userSpaceOnUse"><stop stop-color="#BBB"/><stop offset="1" stop-color="#888"/></linearGradient><linearGradient id="b" x1="7.778" x2="10.221" y1="3" y2="16.961" gradientUnits="userSpaceOnUse"><stop stop-color="#fff"/><stop offset="1" stop-color="#EBEBEB"/></linearGradient><radialGradient id="c" cx="0" cy="0" r="1" gradientTransform="matrix(5.27778 11.0833 -7.91667 4.15625 8.194 6.646)" gradientUnits="userSpaceOnUse"><stop offset=".177" stop-color="#fff"/><stop offset="1" stop-color="#EFEFEF"/></radialGradient><linearGradient id="d" x1="8.52" x2="10.902" y1="7" y2="13.844" gradientUnits="userSpaceOnUse"><stop offset="0" stop-color="#597493"/><stop offset="1" stop-color="#0F2F56"/></linearGradient></defs></svg>