<svg xmlns="http://www.w3.org/2000/svg" fill="none" viewBox="0 0 20 20"><path fill="url(#a)" d="M2 6a2 2 0 0 1 2-2h10a4 4 0 0 1 4 4v6a2 2 0 0 1-2 2H6a4 4 0 0 1-4-4V6z"/><path fill="url(#b)" d="M3 6a1 1 0 0 1 1-1h10a3 3 0 0 1 3 3v6a1 1 0 0 1-1 1H6a3 3 0 0 1-3-3V6z"/><path fill="url(#c)" d="M3 6a1 1 0 0 1 1-1h10a3 3 0 0 1 3 3v6a1 1 0 0 1-1 1H6a3 3 0 0 1-3-3V6z"/><path fill="#2B7CD3" d="M12.5 8a.5.5 0 0 1 .5.5v3a.5.5 0 0 1-.5.5H11v-.5a2.5 2.5 0 0 0-2-2.45V8.5a.5.5 0 0 1 .5-.5h3z"/><path fill="#41A5EE" d="M8.648 6.145a.499.499 0 0 1 .704 0l1.502 1.502a.498.498 0 0 1 0 .704l-1.03 1.03A2.487 2.487 0 0 0 8.5 9h-.705l-.649-.649a.498.498 0 0 1 0-.704l1.502-1.502z"/><rect width="9" height="9" x="1" y="10" fill="#185ABD" rx="2"/><path fill="#fff" d="m7.853 12-1.725 5H4.851l-1.704-5h1.201l1.058 3.361c.025.08.045.148.06.206l.048.202h.021c.019-.084.034-.153.045-.209.012-.058.03-.129.056-.213L6.687 12h1.166z"/><defs><linearGradient id="a" x1="7.167" x2="8.388" y1="4" y2="16.211" gradientUnits="userSpaceOnUse"><stop stop-color="#BBB"/><stop offset="1" stop-color="#888"/></linearGradient><linearGradient id="b" x1="6.889" x2="7.799" y1="5" y2="15.197" gradientUnits="userSpaceOnUse"><stop stop-color="#fff"/><stop offset="1" stop-color="#EBEBEB"/></linearGradient><radialGradient id="c" cx="0" cy="0" r="1" gradientTransform="matrix(7.38889 7.91667 -11.0833 2.96875 7.472 7.604)" gradientUnits="userSpaceOnUse"><stop offset=".177" stop-color="#fff"/><stop offset="1" stop-color="#EFEFEF"/></radialGradient></defs></svg>