<svg xmlns="http://www.w3.org/2000/svg" fill="none" viewBox="0 0 20 20"><path fill="url(#a)" d="M2 6a2 2 0 0 1 2-2h10a4 4 0 0 1 4 4v6a2 2 0 0 1-2 2H6a4 4 0 0 1-4-4V6z"/><path fill="url(#b)" d="M3 6a1 1 0 0 1 1-1h10a3 3 0 0 1 3 3v6a1 1 0 0 1-1 1H6a3 3 0 0 1-3-3V6z"/><path fill="url(#c)" d="M3 6a1 1 0 0 1 1-1h10a3 3 0 0 1 3 3v6a1 1 0 0 1-1 1H6a3 3 0 0 1-3-3V6z"/><path fill="url(#d)" d="M9.385 7.013a.5.5 0 0 1 .562.263l.553 1.106.553-1.106A.5.5 0 0 1 12 7.5v4a.5.5 0 1 1-1 0V9.618l-.053.106a.5.5 0 0 1-.894 0L10 9.618V11.5a.5.5 0 1 1-1 0v-4a.5.5 0 0 1 .385-.487z"/><path fill="url(#e)" d="M13.5 7a.5.5 0 0 1 .5.5V11h1a.5.5 0 0 1 0 1h-1.5a.5.5 0 0 1-.5-.5v-4a.5.5 0 0 1 .5-.5z"/><path fill="url(#f)" d="M5.947 7.277a.5.5 0 1 0-.894.447L5.94 9.5l-.888 1.777a.5.5 0 1 0 .894.447l.553-1.106.553 1.106a.5.5 0 1 0 .894-.447L7.06 9.5l.888-1.776a.5.5 0 1 0-.894-.447L6.5 8.382l-.553-1.105z"/><defs><linearGradient id="a" x1="7.167" x2="8.388" y1="4" y2="16.211" gradientUnits="userSpaceOnUse"><stop stop-color="#BBB"/><stop offset="1" stop-color="#888"/></linearGradient><linearGradient id="b" x1="6.889" x2="7.799" y1="5" y2="15.197" gradientUnits="userSpaceOnUse"><stop stop-color="#fff"/><stop offset="1" stop-color="#EBEBEB"/></linearGradient><radialGradient id="c" cx="0" cy="0" r="1" gradientTransform="matrix(7.38889 7.91667 -11.0833 2.96875 7.472 7.604)" gradientUnits="userSpaceOnUse"><stop offset=".177" stop-color="#fff"/><stop offset="1" stop-color="#EFEFEF"/></radialGradient><linearGradient id="d" x1="5.984" x2="8.162" y1="4.917" y2="12.752" gradientUnits="userSpaceOnUse"><stop offset="0" stop-color="#597493"/><stop offset="1" stop-color="#0F2F56"/></linearGradient><linearGradient id="e" x1="5.984" x2="8.162" y1="4.917" y2="12.752" gradientUnits="userSpaceOnUse"><stop offset="0" stop-color="#597493"/><stop offset="1" stop-color="#0F2F56"/></linearGradient><linearGradient id="f" x1="5.984" x2="8.162" y1="4.917" y2="12.752" gradientUnits="userSpaceOnUse"><stop offset="0" stop-color="#597493"/><stop offset="1" stop-color="#0F2F56"/></linearGradient></defs></svg>